<svg width="26" height="26" viewBox="0 0 26 26" fill="none" xmlns="http://www.w3.org/2000/svg">
<path d="M12.0183 12.7548C14.9991 12.7548 17.4156 10.2521 17.4156 7.16483C17.4156 4.07756 14.9991 1.57483 12.0183 1.57483C9.03752 1.57483 6.62109 4.07756 6.62109 7.16483C6.62109 10.2521 9.03752 12.7548 12.0183 12.7548Z" stroke="#37434E" stroke-opacity="0.65" stroke-width="1.2" stroke-linecap="round" stroke-linejoin="round"/>
<path d="M2.57422 22.5376C2.57422 17.1349 6.80297 12.7551 12.0194 12.7551C14.2255 12.7551 15.4231 12.6534 17.0308 13.9663" stroke="#37434E" stroke-opacity="0.65" stroke-width="1.2" stroke-linecap="round" stroke-linejoin="round"/>
<path d="M18.2489 13.4333H15.9033C15.2555 13.4333 14.7305 13.9584 14.7305 14.6061V23.4021C14.7305 24.0498 15.2555 24.5749 15.9033 24.5749H22.94C23.5878 24.5749 24.1128 24.0498 24.1128 23.4021V14.6061C24.1128 13.9584 23.5878 13.4333 22.94 13.4333H20.8876H18.2489Z" fill="white" stroke="#37434E" stroke-opacity="0.65" stroke-width="1.2" stroke-linecap="round" stroke-linejoin="round"/>
<path d="M16.8242 16.6605H19.4933" stroke="#37434E" stroke-opacity="0.65" stroke-width="1.2" stroke-linecap="round" stroke-linejoin="round"/>
<path d="M16.8242 18.736H21.2728" stroke="#37434E" stroke-opacity="0.65" stroke-width="1.2" stroke-linecap="round" stroke-linejoin="round"/>
<path d="M16.8242 20.812H22.1625" stroke="#37434E" stroke-opacity="0.65" stroke-width="1.2" stroke-linecap="round" stroke-linejoin="round"/>
</svg>
