<svg width="26" height="26" viewBox="0 0 26 26" fill="none" xmlns="http://www.w3.org/2000/svg">
<path d="M12.0183 12.7548C14.9991 12.7548 17.4156 10.2521 17.4156 7.16483C17.4156 4.07756 14.9991 1.57483 12.0183 1.57483C9.03752 1.57483 6.62109 4.07756 6.62109 7.16483C6.62109 10.2521 9.03752 12.7548 12.0183 12.7548Z" stroke="#37434E" stroke-opacity="0.65" stroke-width="1.2" stroke-linecap="round" stroke-linejoin="round"/>
<path d="M2.57422 22.5376C2.57422 17.1349 6.80297 12.7551 12.0194 12.7551C14.2255 12.7551 15.4231 12.6534 17.0308 13.9663" stroke="#37434E" stroke-opacity="0.65" stroke-width="1.2" stroke-linecap="round" stroke-linejoin="round"/>
<path d="M22.9238 17.7094L22.2514 16.0857L23.1551 15.0169L21.93 13.7918L20.867 14.7002L19.2088 14.0183L18.8275 12.5667H17.6304L17.2433 14.0375L15.6232 14.7204L14.5792 13.7918L13.354 15.0169L14.2443 16.1127L13.5822 17.7406L12.1289 18.0797V19.3049L13.5997 19.7064L14.2825 21.3262L13.354 22.3677L14.5792 23.5928L15.6764 22.6987L17.2726 23.3553L17.642 24.818H18.8671L19.2374 23.3559L20.8611 22.6835C21.1317 22.8769 21.93 23.5928 21.93 23.5928L23.1551 22.3677L22.246 21.2953L22.9186 19.6712L24.3802 19.2909L24.3802 18.0797L22.9238 17.7094Z" stroke="#37434E" stroke-opacity="0.65" stroke-width="1.2" stroke-linecap="round" stroke-linejoin="round"/>
<path d="M18.2557 20.5298C19.2706 20.5298 20.0934 19.707 20.0934 18.6921C20.0934 17.6771 19.2706 16.8544 18.2557 16.8544C17.2407 16.8544 16.418 17.6771 16.418 18.6921C16.418 19.707 17.2407 20.5298 18.2557 20.5298Z" stroke="#37434E" stroke-opacity="0.65" stroke-width="1.2" stroke-linecap="round" stroke-linejoin="round"/>
</svg>
