<svg width="26" height="26" viewBox="0 0 26 26" fill="none" xmlns="http://www.w3.org/2000/svg">
<mask id="mask0_1500_4" style="mask-type:alpha" maskUnits="userSpaceOnUse" x="0" y="0" width="26" height="26">
<rect width="26" height="26" fill="#C4C4C4"/>
</mask>
<g mask="url(#mask0_1500_4)">
<path d="M12.0183 12.7548C14.9991 12.7548 17.4156 10.2521 17.4156 7.16483C17.4156 4.07756 14.9991 1.57483 12.0183 1.57483C9.03752 1.57483 6.62109 4.07756 6.62109 7.16483C6.62109 10.2521 9.03752 12.7548 12.0183 12.7548Z" stroke="#37434E" stroke-opacity="0.65" stroke-width="1.2" stroke-linecap="round" stroke-linejoin="round"/>
<path d="M2.57422 22.5376C2.57422 17.1349 6.80297 12.7551 12.0194 12.7551C14.2255 12.7551 15.4231 12.6534 17.0308 13.9663" stroke="#37434E" stroke-opacity="0.65" stroke-width="1.2" stroke-linecap="round" stroke-linejoin="round"/>
<g clip-path="url(#clip0_1500_4)">
<path d="M16.7192 16.1532H14.5887C14.0004 16.1532 13.5234 16.6472 13.5234 17.2565V22.773C13.5234 23.3823 14.0004 23.8763 14.5887 23.8763H23.1106C23.699 23.8763 24.1759 23.3823 24.1759 22.773V17.2565C24.1759 16.6472 23.699 16.1532 23.1106 16.1532H20.9801M16.7192 16.1532H20.9801M16.7192 16.1532V14.2776C16.7192 14.0948 16.8622 13.9467 17.0387 13.9467H20.6606C20.8371 13.9467 20.9801 14.0948 20.9801 14.2776V16.1532" stroke="#37434E" stroke-opacity="0.65" stroke-width="1.2"/>
</g>
</g>
<defs>
<clipPath id="clip0_1500_4">
<rect width="12.7829" height="13.2395" fill="white" transform="translate(12.457 13.3944)"/>
</clipPath>
</defs>
</svg>
