<svg width="26" height="26" viewBox="0 0 26 26" fill="none" xmlns="http://www.w3.org/2000/svg">
<path d="M12.0183 12.7547C14.9991 12.7547 17.4156 10.252 17.4156 7.16471C17.4156 4.07743 14.9991 1.57471 12.0183 1.57471C9.03752 1.57471 6.62109 4.07743 6.62109 7.16471C6.62109 10.252 9.03752 12.7547 12.0183 12.7547Z" stroke="#37434E" stroke-opacity="0.65" stroke-width="1.2" stroke-linecap="round" stroke-linejoin="round"/>
<path d="M2.57422 22.5377C2.57422 17.135 6.80297 12.7552 12.0194 12.7552C14.2255 12.7552 15.4231 12.6536 17.0308 13.9664" stroke="#37434E" stroke-opacity="0.65" stroke-width="1.2" stroke-linecap="round" stroke-linejoin="round"/>
<path d="M23.6974 19.2833H14.1641V13.8666C14.1641 12.6533 15.0307 12.4944 15.4641 12.5666H22.3974C23.6107 12.5666 23.7696 13.4333 23.6974 13.8666V19.2833Z" fill="white"/>
<path d="M14.1446 19.2209V13.6555C14.1446 13.0542 14.6321 12.5667 15.2335 12.5667H22.6378C23.2392 12.5667 23.7267 13.0542 23.7267 13.6555V19.2209M14.1446 19.2209H23.7267M14.1446 19.2209L13.3386 22.0702C13.1421 22.7652 13.6642 23.4554 14.3864 23.4554H23.4849C24.2071 23.4554 24.7292 22.7652 24.5327 22.0702L23.7267 19.2209M14.1446 19.2209H18.9356H23.7267" stroke="#37434E" stroke-opacity="0.65" stroke-width="1.2"/>
<path d="M18.3906 21.8225H19.4795" stroke="#37434E" stroke-opacity="0.65" stroke-width="1.2" stroke-linecap="round" stroke-linejoin="round"/>
</svg>
